<?xml version="1.0" standalone="no"?>
<!DOCTYPE svg PUBLIC "-//W3C//DTD SVG 20010904//EN"
 "http://www.w3.org/TR/2001/REC-SVG-20010904/DTD/svg10.dtd">
<svg version="1.0" xmlns="http://www.w3.org/2000/svg"
 width="256.000000pt" height="256.000000pt" viewBox="0 0 256.000000 256.000000"
 preserveAspectRatio="xMidYMid meet">
<metadata>
Created by potrace 1.14, written by Peter Selinger 2001-2017
</metadata>
<g transform="translate(0.000000,256.000000) scale(0.100000,-0.100000)"
fill="#000000" stroke="none">
<path d="M1206 2546 c-54 -20 -85 -45 -121 -95 l-30 -43 -3 -449 -3 -449 -435
0 c-469 0 -467 0 -532 -55 -43 -36 -72 -95 -79 -159 -10 -93 53 -194 143 -232
27 -11 122 -14 469 -14 l435 0 0 -437 c0 -422 1 -438 21 -480 72 -148 279
-176 384 -51 55 65 55 63 55 533 l0 435 435 0 c475 0 469 -1 537 59 125 110
87 322 -69 388 -26 10 -125 13 -468 13 l-435 0 0 435 c0 470 0 468 -55 533
-56 67 -169 98 -249 68z"/>
</g>
</svg>
