<?xml version="1.0" standalone="no"?>
<!DOCTYPE svg PUBLIC "-//W3C//DTD SVG 20010904//EN"
 "http://www.w3.org/TR/2001/REC-SVG-20010904/DTD/svg10.dtd">
<svg version="1.0" xmlns="http://www.w3.org/2000/svg"
 width="150.000000pt" height="84.000000pt" viewBox="0 0 150.000000 84.000000"
 preserveAspectRatio="xMidYMid meet">
<metadata>
Created by potrace 1.14, written by Peter Selinger 2001-2017
</metadata>
<g transform="translate(0.000000,84.000000) scale(0.100000,-0.100000)"
fill="#000000" stroke="none">
<path d="M372 507 l-373 -332 35 -30 c19 -16 61 -54 94 -83 l60 -53 277 246
c152 135 280 245 285 245 5 0 133 -110 285 -245 l277 -245 60 52 c33 29 75 67
94 83 l35 30 -372 330 c-205 182 -375 331 -378 332 -3 1 -174 -148 -379 -330z"/>
</g>
</svg>
