<?xml version="1.0" standalone="no"?>
<!DOCTYPE svg PUBLIC "-//W3C//DTD SVG 20010904//EN"
 "http://www.w3.org/TR/2001/REC-SVG-20010904/DTD/svg10.dtd">
<svg version="1.0" xmlns="http://www.w3.org/2000/svg"
 width="250.000000pt" height="226.000000pt" viewBox="0 0 250.000000 226.000000"
 preserveAspectRatio="xMidYMid meet">
<metadata>
Created by potrace 1.14, written by Peter Selinger 2001-2017
</metadata>
<g transform="translate(0.000000,226.000000) scale(0.100000,-0.100000)"
fill="#000000" stroke="none">
<path d="M956 2250 c-278 -44 -527 -186 -696 -397 -115 -143 -180 -272 -227
-450 -23 -88 -26 -116 -26 -273 0 -157 3 -185 26 -273 81 -305 258 -545 518
-702 174 -105 337 -148 559 -148 220 0 382 42 551 143 86 52 211 150 235 184
20 29 18 80 -4 99 -36 33 -77 22 -143 -38 -153 -141 -341 -225 -548 -244 -673
-62 -1198 571 -1025 1235 102 391 445 686 842 723 297 27 574 -77 782 -295
120 -127 196 -257 240 -415 19 -71 46 -257 37 -265 -2 -2 -57 43 -123 101
-124 110 -147 121 -192 89 -16 -11 -22 -25 -22 -53 0 -38 6 -44 203 -220 111
-100 213 -184 225 -188 15 -3 32 1 48 13 32 26 284 411 284 436 0 51 -49 86
-95 68 -16 -6 -53 -52 -103 -128 l-78 -118 -12 112 c-52 491 -403 888 -877
990 -85 19 -298 26 -379 14z"/>
<path d="M685 1539 c-33 -27 -100 -70 -150 -96 -49 -25 -91 -47 -92 -47 -1 -1
11 -36 27 -77 23 -58 33 -73 47 -71 14 3 104 43 156 70 4 2 7 -145 7 -327 l0
-331 100 0 100 0 0 465 0 465 -67 -1 c-66 0 -69 -1 -128 -50z"/>
<path d="M1317 1501 c-97 -115 -191 -252 -261 -376 -55 -97 -56 -102 -56 -177
l0 -78 195 0 195 0 0 -105 0 -105 95 0 95 0 0 105 0 105 50 0 50 0 0 80 0 80
-50 0 -50 0 0 280 0 280 -95 0 -95 0 -73 -89z m73 -316 l0 -155 -106 0 -106 0
27 48 c30 51 175 262 181 262 2 0 4 -70 4 -155z"/>
</g>
</svg>
