<?xml version="1.0" standalone="no"?>
<!DOCTYPE svg PUBLIC "-//W3C//DTD SVG 20010904//EN"
 "http://www.w3.org/TR/2001/REC-SVG-20010904/DTD/svg10.dtd">
<svg version="1.0" xmlns="http://www.w3.org/2000/svg"
 width="250.000000pt" height="190.000000pt" viewBox="0 0 250.000000 190.000000"
 preserveAspectRatio="xMidYMid meet">
<metadata>
Created by potrace 1.14, written by Peter Selinger 2001-2017
</metadata>
<g transform="translate(0.000000,190.000000) scale(0.100000,-0.100000)"
fill="#000000" stroke="none">
<path d="M1242 1890 c-40 -16 -52 -66 -52 -210 l0 -130 -521 0 -521 0 -29 -29
c-17 -18 -29 -40 -29 -56 0 -16 12 -38 29 -56 l29 -29 1101 0 1100 0 26 23
c38 32 38 92 0 124 l-26 23 -490 0 -489 0 0 144 c0 79 -3 152 -6 161 -8 19
-55 45 -81 44 -10 0 -28 -4 -41 -9z"/>
<path d="M486 1288 c-8 -13 -121 -192 -250 -398 -256 -407 -248 -390 -225
-502 38 -181 187 -329 375 -374 291 -68 589 140 611 427 3 40 1 74 -6 87 -6
12 -119 193 -251 402 -232 371 -239 381 -254 358z m157 -528 l134 -215 -270
-3 c-149 -1 -272 0 -275 2 -6 7 262 436 270 434 4 -2 68 -100 141 -218z m170
-421 c-33 -62 -89 -113 -163 -148 -47 -22 -68 -26 -150 -26 -85 0 -101 3 -154
29 -69 34 -135 96 -166 155 l-20 41 340 0 341 0 -28 -51z"/>
<path d="M1747 911 l-249 -396 5 -70 c15 -234 215 -425 462 -442 248 -16 475
150 524 385 23 112 32 93 -234 517 -135 214 -249 392 -253 396 -4 4 -119 -171
-255 -390z m392 -147 c73 -118 131 -217 129 -220 -3 -2 -126 -3 -275 -2 l-269
3 134 218 c74 119 138 217 141 217 3 0 66 -97 140 -216z m181 -415 c-31 -59
-97 -121 -166 -155 -53 -26 -69 -29 -154 -29 -82 0 -103 4 -150 26 -74 35
-130 86 -163 148 l-28 51 341 0 340 0 -20 -41z"/>
</g>
</svg>
