<?xml version="1.0" standalone="no"?>
<!DOCTYPE svg PUBLIC "-//W3C//DTD SVG 20010904//EN"
 "http://www.w3.org/TR/2001/REC-SVG-20010904/DTD/svg10.dtd">
<svg version="1.0" xmlns="http://www.w3.org/2000/svg"
 width="250.000000pt" height="250.000000pt" viewBox="0 0 250.000000 250.000000"
 preserveAspectRatio="xMidYMid meet">
<metadata>
Created by potrace 1.14, written by Peter Selinger 2001-2017
</metadata>
<g transform="translate(0.000000,250.000000) scale(0.100000,-0.100000)"
fill="#000000" stroke="none">
<path d="M890 2490 c-91 -13 -221 -55 -314 -101 -633 -315 -771 -1167 -268
-1665 343 -340 863 -400 1277 -149 l72 44 309 -310 c264 -264 314 -309 339
-309 42 0 195 153 195 195 0 25 -45 75 -309 339 l-310 309 45 75 c52 85 96
190 126 300 31 111 31 373 0 484 -108 396 -382 669 -770 769 -89 23 -293 33
-392 19z m362 -343 c117 -37 203 -90 294 -181 90 -90 143 -175 182 -294 22
-67 25 -95 26 -212 0 -119 -3 -144 -26 -212 -40 -119 -92 -204 -182 -294 -90
-90 -175 -143 -294 -182 -67 -22 -94 -26 -212 -26 -118 0 -145 4 -212 26 -119
39 -204 92 -294 182 -90 90 -143 175 -182 294 -22 67 -26 94 -26 212 0 118 4
145 26 212 39 119 92 204 182 294 110 110 236 177 381 204 86 16 251 5 337
-23z"/>
</g>
</svg>
