<?xml version="1.0" standalone="no"?>
<!DOCTYPE svg PUBLIC "-//W3C//DTD SVG 20010904//EN"
 "http://www.w3.org/TR/2001/REC-SVG-20010904/DTD/svg10.dtd">
<svg version="1.0" xmlns="http://www.w3.org/2000/svg"
 width="188.000000pt" height="250.000000pt" viewBox="0 0 188.000000 250.000000"
 preserveAspectRatio="xMidYMid meet">
<metadata>
Created by potrace 1.14, written by Peter Selinger 2001-2017
</metadata>
<g transform="translate(0.000000,250.000000) scale(0.100000,-0.100000)"
fill="#000000" stroke="none">
<path d="M822 2429 l-93 -71 -116 15 c-83 11 -122 12 -139 5 -16 -7 -36 -43
-69 -118 l-47 -108 -101 -42 c-148 -61 -144 -54 -128 -200 l13 -121 -58 -75
c-106 -135 -106 -130 -7 -253 l67 -83 -12 -97 c-17 -134 -16 -157 8 -174 11
-8 65 -32 119 -53 l99 -38 43 -105 c24 -57 52 -109 61 -115 17 -10 18 -39 18
-377 0 -355 1 -367 21 -393 12 -16 30 -26 46 -26 15 0 101 47 209 114 l184
115 184 -115 c108 -67 194 -114 209 -114 16 0 34 10 46 26 20 26 21 38 21 393
0 338 1 367 18 377 9 6 37 58 61 115 l43 105 99 38 c54 21 108 45 119 53 24
17 25 40 8 174 l-12 97 67 83 c99 123 99 118 -7 253 l-58 75 13 121 c16 146
20 139 -128 200 l-101 42 -47 108 c-33 75 -53 111 -69 118 -17 7 -56 6 -139
-5 l-116 -14 -94 70 c-56 43 -103 71 -118 71 -14 0 -62 -29 -117 -71z m205
-144 c47 -36 91 -65 97 -65 6 1 55 7 110 14 l98 13 21 -51 c60 -145 62 -147
170 -191 97 -39 99 -40 93 -69 -3 -16 -9 -66 -12 -110 l-6 -81 61 -77 c33 -43
61 -81 61 -84 0 -4 -28 -43 -61 -87 l-62 -79 7 -81 c14 -153 24 -133 -89 -180
l-99 -42 -40 -95 c-22 -52 -40 -96 -41 -98 -1 -1 -52 3 -113 10 l-110 12 -83
-62 c-46 -35 -89 -60 -96 -58 -7 3 -47 31 -89 63 l-76 57 -110 -12 c-61 -7
-112 -11 -113 -10 -1 2 -19 46 -41 98 l-40 95 -99 42 c-113 47 -103 27 -89
180 l7 81 -62 79 c-33 44 -61 83 -61 87 0 3 28 41 61 84 l61 77 -6 81 c-3 44
-9 94 -12 110 -6 29 -4 30 93 69 108 44 110 46 170 191 l21 51 98 -13 c55 -7
104 -13 110 -14 6 0 49 29 95 64 46 36 85 65 87 65 1 1 41 -28 89 -64z m-211
-1545 c121 -91 127 -91 247 -1 92 69 92 69 140 62 26 -5 49 -10 52 -13 3 -3 4
-138 3 -301 l-3 -296 -143 90 c-93 57 -154 89 -172 89 -18 0 -79 -32 -172 -89
l-143 -90 -3 296 c-1 163 0 298 3 301 3 3 24 9 48 13 23 3 44 7 46 8 2 0 46
-30 97 -69z"/>
<path d="M835 2165 c-116 -22 -202 -60 -274 -121 -40 -33 -42 -74 -5 -103 37
-29 49 -27 118 18 92 59 153 76 276 76 100 -1 109 -3 183 -37 90 -43 180 -123
220 -196 98 -181 65 -398 -82 -542 -69 -67 -149 -107 -253 -128 -70 -14 -86
-14 -156 0 -104 21 -184 61 -253 128 -151 148 -181 362 -76 552 30 55 31 60
17 86 -9 15 -28 31 -42 36 -41 14 -74 -14 -114 -98 -112 -236 -70 -480 116
-666 240 -241 620 -241 860 0 190 190 229 435 110 678 -115 232 -389 367 -645
317z"/>
</g>
</svg>
