<?xml version="1.0" standalone="no"?>
<!DOCTYPE svg PUBLIC "-//W3C//DTD SVG 20010904//EN"
 "http://www.w3.org/TR/2001/REC-SVG-20010904/DTD/svg10.dtd">
<svg version="1.0" xmlns="http://www.w3.org/2000/svg"
 width="250.000000pt" height="219.000000pt" viewBox="0 0 250.000000 219.000000"
 preserveAspectRatio="xMidYMid meet">
<metadata>
Created by potrace 1.14, written by Peter Selinger 2001-2017
</metadata>
<g transform="translate(0.000000,219.000000) scale(0.100000,-0.100000)"
fill="#000000" stroke="none">
<path d="M16 2174 c-14 -14 -16 -113 -16 -938 0 -762 2 -926 13 -935 10 -8
257 -12 868 -13 l854 -3 -3 -110 c-4 -125 5 -161 44 -171 23 -6 35 3 100 67
l73 73 75 -72 c74 -72 98 -83 129 -60 14 11 17 35 19 143 l3 130 149 3 c90 1
155 7 163 14 11 8 13 182 13 934 0 825 -2 924 -16 938 -14 14 -140 16 -1234
16 -1094 0 -1220 -2 -1234 -16z m2382 -936 l2 -848 -110 0 -110 0 0 41 c0 36
6 45 60 95 123 114 167 286 113 439 -11 32 -14 119 -13 430 0 215 -4 403 -8
419 -9 33 -18 39 -80 56 -48 12 -82 55 -82 102 0 61 41 58 -920 58 -961 0
-920 3 -920 -58 0 -47 -34 -90 -82 -102 -63 -17 -71 -23 -80 -58 -5 -17 -7
-289 -6 -603 3 -552 4 -571 22 -585 11 -8 33 -14 49 -14 40 0 97 -57 97 -98 0
-65 -39 -62 716 -62 l684 0 0 -30 0 -30 -815 0 -815 0 0 843 c0 464 3 847 7
850 3 4 520 6 1147 5 l1141 -3 3 -847z m-315 650 c17 -40 87 -105 122 -114
l25 -6 0 -310 0 -309 -29 21 c-64 45 -141 72 -220 77 -176 12 -330 -76 -408
-234 -33 -67 -38 -85 -41 -167 -4 -104 15 -174 68 -251 l31 -45 -599 0 -600 0
-13 32 c-19 47 -63 92 -109 113 l-40 18 0 527 0 528 25 6 c35 9 105 74 122
114 l13 32 820 0 820 0 13 -32z m13 -781 c57 -29 112 -85 146 -149 18 -35 23
-59 23 -128 0 -99 -23 -158 -86 -221 -61 -61 -111 -82 -211 -87 -76 -4 -92 -1
-140 20 -75 35 -122 79 -158 150 -26 52 -30 72 -30 138 0 66 4 86 31 138 35
70 93 123 166 153 70 28 190 22 259 -14z m-32 -766 c3 -41 6 -94 6 -119 l0
-45 -50 47 c-27 25 -56 46 -65 46 -9 0 -38 -21 -65 -46 l-50 -47 0 119 0 119
109 0 108 0 7 -74z"/>
<path d="M966 1764 c-19 -18 -20 -38 -6 -65 10 -18 24 -19 290 -19 266 0 280
1 290 19 14 27 13 47 -6 65 -13 14 -53 16 -284 16 -231 0 -271 -2 -284 -16z"/>
<path d="M556 1564 c-9 -8 -16 -26 -16 -39 0 -57 -29 -55 710 -55 739 0 710
-2 710 55 0 57 29 55 -710 55 -604 0 -680 -2 -694 -16z"/>
<path d="M552 1358 c-7 -7 -12 -24 -12 -38 0 -14 5 -31 12 -38 17 -17 1379
-17 1396 0 15 15 15 61 0 76 -17 17 -1379 17 -1396 0z"/>
<path d="M558 1159 c-26 -15 -23 -64 4 -83 25 -18 94 -21 132 -6 21 8 26 16
26 44 0 25 -6 38 -19 46 -25 13 -121 13 -143 -1z"/>
<path d="M808 1159 c-25 -14 -24 -75 1 -89 12 -6 132 -10 320 -10 288 0 302 1
321 20 11 11 20 27 20 35 0 8 -9 24 -20 35 -19 19 -33 20 -322 20 -187 0 -310
-5 -320 -11z"/>
<path d="M552 948 c-7 -7 -12 -24 -12 -38 0 -14 5 -31 12 -38 17 -17 389 -17
406 0 15 15 15 61 0 76 -17 17 -389 17 -406 0z"/>
<path d="M1046 944 c-21 -21 -20 -47 2 -67 16 -15 45 -17 204 -17 166 0 187 2
201 18 21 23 22 46 1 66 -23 24 -385 24 -408 0z"/>
<path d="M1903 1080 c-105 -21 -175 -91 -204 -203 -10 -40 -9 -51 5 -72 30
-45 96 -24 96 32 0 66 58 129 127 140 60 9 73 20 73 59 0 28 -5 36 -26 44 -14
6 -26 10 -27 9 -1 -1 -21 -5 -44 -9z"/>
<path d="M2122 868 c-5 -7 -13 -33 -17 -57 -10 -63 -64 -118 -127 -130 -57
-10 -78 -25 -78 -57 0 -24 33 -54 60 -54 41 0 120 33 159 67 77 65 120 207 72
233 -26 14 -56 13 -69 -2z"/>
</g>
</svg>
