<?xml version="1.0" standalone="no"?>
<!DOCTYPE svg PUBLIC "-//W3C//DTD SVG 20010904//EN"
 "http://www.w3.org/TR/2001/REC-SVG-20010904/DTD/svg10.dtd">
<svg version="1.0" xmlns="http://www.w3.org/2000/svg"
 width="250.000000pt" height="188.000000pt" viewBox="0 0 250.000000 188.000000"
 preserveAspectRatio="xMidYMid meet">
<metadata>
Created by potrace 1.14, written by Peter Selinger 2001-2017
</metadata>
<g transform="translate(0.000000,188.000000) scale(0.100000,-0.100000)"
fill="#000000" stroke="none">
<path d="M17 1862 c-15 -17 -17 -77 -17 -654 0 -602 1 -636 18 -651 14 -13 39
-17 105 -17 l86 0 -15 -35 c-7 -19 -14 -44 -14 -55 0 -18 -6 -20 -70 -20 -74
0 -110 -19 -110 -57 0 -39 18 -48 96 -53 l76 -5 18 -57 c72 -234 363 -331 570
-190 65 44 125 126 146 199 l15 53 329 0 329 0 15 -53 c21 -73 81 -155 146
-199 207 -141 498 -44 570 190 l18 57 76 5 c53 3 80 10 86 20 6 9 10 154 10
343 l0 328 -97 207 c-53 114 -105 215 -116 225 -17 15 -46 17 -294 17 l-274 0
-24 -25 c-30 -29 -31 -36 -6 -66 19 -24 21 -24 276 -29 l257 -5 84 -179 84
-179 0 -273 0 -274 -35 0 c-30 0 -35 3 -35 23 0 40 -58 143 -106 187 -25 23
-71 54 -102 68 -50 24 -69 27 -162 27 -95 0 -110 -3 -160 -28 -95 -49 -166
-133 -195 -230 l-12 -42 -332 0 -332 0 -18 53 -18 52 349 0 c335 0 349 1 368
20 20 20 20 33 20 650 0 617 0 630 -20 650 -20 20 -33 20 -793 20 -737 0 -775
-1 -790 -18z m1483 -652 l0 -560 -354 0 c-231 0 -357 4 -361 10 -4 6 -34 25
-68 42 -52 26 -76 32 -148 36 -98 5 -156 -9 -233 -58 -43 -28 -54 -30 -136
-30 l-90 0 0 560 0 560 695 0 695 0 0 -560z m-845 -604 c195 -91 203 -357 14
-461 -44 -23 -66 -29 -119 -29 -287 -1 -367 376 -106 495 59 27 148 25 211 -5z
m1431 -11 c199 -124 161 -406 -64 -471 -136 -40 -283 45 -322 186 -32 114 31
243 145 297 73 35 173 30 241 -12z"/>
<path d="M470 502 c-74 -39 -98 -144 -49 -214 62 -87 203 -75 251 22 65 128
-74 259 -202 192z"/>
<path d="M1881 503 c-68 -33 -95 -114 -63 -187 64 -143 282 -97 282 59 0 109
-118 178 -219 128z"/>
<path d="M1712 1248 c-8 -8 -12 -55 -12 -144 0 -126 1 -134 22 -148 19 -14 62
-16 270 -16 235 0 249 1 268 20 11 11 20 25 20 32 0 17 -100 229 -118 251 -14
15 -38 17 -227 17 -151 0 -214 -3 -223 -12z m396 -143 c12 -25 22 -48 22 -50
0 -3 -72 -5 -160 -5 l-160 0 0 50 0 50 138 0 138 0 22 -45z"/>
</g>
</svg>
