<?xml version="1.0" standalone="no"?>
<!DOCTYPE svg PUBLIC "-//W3C//DTD SVG 20010904//EN"
 "http://www.w3.org/TR/2001/REC-SVG-20010904/DTD/svg10.dtd">
<svg version="1.0" xmlns="http://www.w3.org/2000/svg"
 width="250.000000pt" height="250.000000pt" viewBox="0 0 250.000000 250.000000"
 preserveAspectRatio="xMidYMid meet">
<metadata>
Created by potrace 1.14, written by Peter Selinger 2001-2017
</metadata>
<g transform="translate(0.000000,250.000000) scale(0.100000,-0.100000)"
fill="#000000" stroke="none">
<path d="M580 2485 c-144 -29 -313 -111 -409 -201 -220 -204 -227 -490 -22
-909 170 -346 453 -715 887 -1154 l221 -224 93 89 c51 49 152 152 224 229 361
387 608 717 763 1022 213 421 215 727 5 932 -117 114 -300 200 -478 223 -201
27 -426 -42 -571 -175 l-42 -39 -53 47 c-70 61 -231 140 -330 159 -91 19 -198
19 -288 1z"/>
</g>
</svg>
