<?xml version="1.0" standalone="no"?>
<!DOCTYPE svg PUBLIC "-//W3C//DTD SVG 20010904//EN"
 "http://www.w3.org/TR/2001/REC-SVG-20010904/DTD/svg10.dtd">
<svg version="1.0" xmlns="http://www.w3.org/2000/svg"
 width="250.000000pt" height="250.000000pt" viewBox="0 0 250.000000 250.000000"
 preserveAspectRatio="xMidYMid meet">
<metadata>
Created by potrace 1.14, written by Peter Selinger 2001-2017
</metadata>
<g transform="translate(0.000000,250.000000) scale(0.100000,-0.100000)"
fill="#000000" stroke="none">
<path d="M580 2485 c-144 -29 -313 -111 -409 -201 -221 -204 -227 -492 -21
-910 172 -349 452 -714 886 -1153 l221 -224 93 89 c51 49 152 152 224 229 556
595 870 1101 918 1480 30 235 -53 424 -241 549 -279 186 -599 204 -855 49 -33
-21 -80 -55 -103 -76 l-42 -39 -53 47 c-70 61 -231 140 -330 159 -91 19 -198
19 -288 1z m1289 -272 c142 -39 253 -118 291 -205 33 -77 25 -216 -19 -347
-96 -283 -340 -651 -705 -1058 -68 -76 -137 -151 -153 -166 l-30 -28 -130 143
c-520 568 -803 1036 -803 1327 0 102 14 145 62 197 80 87 222 144 357 144 161
0 274 -55 445 -215 l59 -55 58 54 c75 70 204 160 273 192 100 46 178 50 295
17z"/>
</g>
</svg>
