<?xml version="1.0" standalone="no"?>
<!DOCTYPE svg PUBLIC "-//W3C//DTD SVG 20010904//EN"
 "http://www.w3.org/TR/2001/REC-SVG-20010904/DTD/svg10.dtd">
<svg version="1.0" xmlns="http://www.w3.org/2000/svg"
 width="512.000000pt" height="512.000000pt" viewBox="0 0 512.000000 512.000000"
 preserveAspectRatio="xMidYMid meet">
<metadata>
Created by potrace 1.14, written by Peter Selinger 2001-2017
</metadata>
<g transform="translate(0.000000,512.000000) scale(0.100000,-0.100000)"
fill="#000000" stroke="none">
<path d="M100 4769 c-54 -22 -100 -89 -100 -148 0 -33 31 -85 65 -107 14 -9
97 -38 183 -64 l157 -47 53 -179 c29 -99 201 -692 383 -1318 182 -627 339
-1160 349 -1185 33 -85 93 -174 161 -243 65 -64 67 -69 48 -81 -10 -6 -42 -40
-69 -73 -131 -161 -168 -361 -104 -564 60 -189 237 -354 434 -401 78 -19 222
-16 295 5 211 62 375 229 430 436 32 118 14 294 -41 402 l-24 48 585 0 585 0
-25 -50 c-38 -74 -55 -154 -55 -253 0 -171 56 -303 180 -427 118 -118 252
-174 420 -174 160 0 292 52 410 161 128 118 192 264 193 438 0 146 -36 254
-125 374 -38 50 -39 54 -22 64 11 5 53 44 94 86 129 131 124 116 346 983 107
419 199 793 205 832 29 183 -34 337 -177 431 -118 79 37 63 -2143 215 -1091
76 -1987 142 -1991 147 -4 4 -40 114 -79 243 -83 270 -88 285 -107 301 -16 13
-452 159 -474 158 -8 0 -26 -5 -40 -10z m2755 -1174 c1018 -73 1862 -138 1876
-143 14 -6 40 -24 57 -41 60 -60 63 -40 -147 -864 -105 -410 -200 -765 -211
-787 -42 -82 -126 -157 -220 -195 -36 -15 -68 -18 -160 -16 -77 1 -133 -4
-170 -14 -82 -22 -1867 -22 -1950 0 -30 8 -82 15 -114 15 -41 0 -74 7 -104 22
-65 31 -174 138 -210 205 -20 39 -120 367 -302 993 -149 514 -273 942 -276
951 -4 14 2 16 38 12 24 -2 876 -64 1893 -138z m-948 -2366 c192 -72 258 -337
120 -486 -68 -74 -104 -88 -227 -88 -89 0 -111 3 -146 22 -99 53 -145 129
-152 249 -9 161 64 271 208 315 50 15 138 9 197 -12z m2243 -8 c107 -55 160
-144 160 -271 0 -124 -53 -219 -153 -273 -36 -19 -57 -22 -147 -22 -123 0
-159 14 -227 88 -103 111 -95 326 15 430 16 15 56 39 88 53 77 32 194 30 264
-5z"/>
</g>
</svg>
