<?xml version="1.0" standalone="no"?>
<!DOCTYPE svg PUBLIC "-//W3C//DTD SVG 20010904//EN"
 "http://www.w3.org/TR/2001/REC-SVG-20010904/DTD/svg10.dtd">
<svg version="1.0" xmlns="http://www.w3.org/2000/svg"
 width="187.000000pt" height="250.000000pt" viewBox="0 0 187.000000 250.000000"
 preserveAspectRatio="xMidYMid meet">
<metadata>
Created by potrace 1.14, written by Peter Selinger 2001-2017
</metadata>
<g transform="translate(0.000000,250.000000) scale(0.100000,-0.100000)"
fill="#000000" stroke="none">
<path d="M908 2483 c-134 -173 -378 -265 -745 -280 -96 -4 -146 -10 -153 -18
-7 -9 -10 -235 -8 -691 l3 -679 26 -66 c77 -199 292 -411 603 -596 116 -69
281 -153 301 -153 20 0 185 84 301 153 311 185 526 397 603 596 l26 66 3 679
c2 454 -1 682 -8 691 -7 8 -59 14 -157 18 -230 10 -376 41 -532 113 -78 36
-106 56 -162 114 -37 39 -72 70 -78 70 -6 0 -16 -8 -23 -17z m82 -237 c98
-106 304 -169 609 -184 l126 -7 3 -580 c2 -511 0 -585 -14 -630 -66 -206 -310
-431 -659 -607 l-121 -61 -120 62 c-350 178 -592 401 -658 606 -14 45 -16 119
-14 630 l3 580 126 7 c305 15 515 79 606 183 21 24 46 44 55 44 10 1 36 -19
58 -43z"/>
<path d="M1391 1683 c-158 -108 -335 -258 -476 -405 l-121 -125 -133 104 -132
104 -53 -40 c-28 -22 -63 -52 -76 -66 l-24 -26 249 -249 c138 -138 253 -250
256 -250 3 0 32 51 63 114 65 132 211 356 322 494 43 53 129 149 191 213 62
64 113 121 113 128 0 14 -49 81 -59 81 -4 0 -58 -35 -120 -77z"/>
</g>
</svg>
