<?xml version="1.0" standalone="no"?>
<!DOCTYPE svg PUBLIC "-//W3C//DTD SVG 20010904//EN"
 "http://www.w3.org/TR/2001/REC-SVG-20010904/DTD/svg10.dtd">
<svg version="1.0" xmlns="http://www.w3.org/2000/svg"
 width="250.000000pt" height="250.000000pt" viewBox="0 0 250.000000 250.000000"
 preserveAspectRatio="xMidYMid meet">
<metadata>
Created by potrace 1.14, written by Peter Selinger 2001-2017
</metadata>
<g transform="translate(0.000000,250.000000) scale(0.100000,-0.100000)"
fill="#000000" stroke="none">
<path d="M600 2491 c-74 -23 -127 -69 -159 -141 -18 -39 -21 -66 -21 -207 l0
-163 733 0 c494 0 745 -4 772 -11 61 -16 131 -65 170 -119 67 -91 69 -101 73
-452 l3 -318 67 0 c120 0 212 64 247 171 14 40 15 118 13 555 l-3 510 -26 49
c-28 56 -91 109 -147 125 -43 12 -1682 13 -1722 1z"/>
<path d="M195 1891 c-69 -17 -134 -70 -171 -141 -18 -33 -19 -67 -19 -565 0
-524 0 -530 22 -570 25 -47 74 -96 123 -121 28 -15 65 -19 193 -22 l157 -4 0
-223 c0 -235 3 -252 47 -243 10 2 110 108 222 236 l205 232 433 0 c262 0 451
4 480 10 69 15 135 67 167 131 l26 53 0 521 0 521 -26 52 c-14 29 -42 66 -62
82 -74 61 -56 60 -951 59 -449 -1 -829 -4 -846 -8z m923 -465 c2 -16 -2 -32
-10 -37 -7 -5 -151 -9 -319 -9 -334 0 -338 1 -325 55 l6 25 323 -2 322 -3 3
-29z m532 -236 c24 -24 25 -34 4 -54 -14 -14 -81 -16 -593 -16 -435 0 -580 3
-589 12 -18 18 -15 55 6 67 11 7 218 10 585 11 554 0 567 0 587 -20z m6 -265
c16 -24 16 -27 -1 -45 -18 -19 -33 -20 -595 -20 -435 0 -579 3 -588 12 -18 18
-15 55 6 67 11 7 219 10 589 11 l573 0 16 -25z"/>
</g>
</svg>
