<?xml version="1.0" standalone="no"?>
<!DOCTYPE svg PUBLIC "-//W3C//DTD SVG 20010904//EN"
 "http://www.w3.org/TR/2001/REC-SVG-20010904/DTD/svg10.dtd">
<svg version="1.0" xmlns="http://www.w3.org/2000/svg"
 width="219.000000pt" height="250.000000pt" viewBox="0 0 219.000000 250.000000"
 preserveAspectRatio="xMidYMid meet">
<metadata>
Created by potrace 1.14, written by Peter Selinger 2001-2017
</metadata>
<g transform="translate(0.000000,250.000000) scale(0.100000,-0.100000)"
fill="#000000" stroke="none">
<path d="M970 2489 c-164 -28 -285 -138 -326 -299 -24 -96 -15 -302 20 -430
37 -137 121 -300 194 -380 84 -92 147 -125 237 -125 59 0 79 5 124 30 83 46
164 142 227 270 76 155 105 266 111 435 6 157 -8 232 -60 319 -90 149 -292
219 -527 180z"/>
<path d="M405 1231 c-119 -54 -313 -308 -380 -497 -30 -84 -36 -255 -10 -303
53 -103 375 -242 882 -382 l182 -50 158 41 c422 111 744 231 876 327 72 53 80
75 75 212 -4 98 -8 126 -31 181 -88 209 -283 447 -394 480 -37 11 -44 9 -360
-145 l-321 -157 -305 156 c-168 86 -311 156 -319 156 -7 0 -31 -9 -53 -19z"/>
</g>
</svg>
