<?xml version="1.0" standalone="no"?>
<!DOCTYPE svg PUBLIC "-//W3C//DTD SVG 20010904//EN"
 "http://www.w3.org/TR/2001/REC-SVG-20010904/DTD/svg10.dtd">
<svg version="1.0" xmlns="http://www.w3.org/2000/svg"
 width="256.000000pt" height="256.000000pt" viewBox="0 0 256.000000 256.000000"
 preserveAspectRatio="xMidYMid meet">
<metadata>
Created by potrace 1.14, written by Peter Selinger 2001-2017
</metadata>
<g transform="translate(0.000000,256.000000) scale(0.100000,-0.100000)"
fill="#000000" stroke="none">
<path d="M1102 2550 c-476 -67 -883 -406 -1036 -862 -51 -150 -59 -211 -59
-408 0 -197 8 -258 59 -408 126 -376 430 -680 806 -806 150 -51 211 -59 408
-59 197 0 258 8 408 59 377 126 680 430 807 808 50 148 58 209 58 406 0 197
-8 258 -59 408 -126 376 -430 680 -806 806 -42 14 -109 33 -150 42 -86 18
-344 27 -436 14z m440 -218 c393 -105 680 -392 790 -790 18 -66 22 -104 22
-262 0 -158 -4 -196 -22 -262 -110 -398 -392 -680 -790 -790 -66 -18 -104 -22
-262 -22 -158 0 -196 4 -262 22 -397 109 -681 393 -790 790 -18 66 -22 104
-22 262 0 204 11 261 74 413 140 336 445 585 799 652 111 21 361 14 463 -13z"/>
<path d="M908 2101 c-28 -25 -33 -36 -33 -75 l0 -46 350 -350 350 -350 -347
-347 c-228 -229 -349 -357 -353 -376 -20 -78 54 -152 133 -133 18 5 160 140
425 404 l397 397 0 50 0 50 -403 402 -402 403 -42 0 c-33 0 -50 -7 -75 -29z"/>
</g>
</svg>
