<?xml version="1.0" standalone="no"?>
<!DOCTYPE svg PUBLIC "-//W3C//DTD SVG 20010904//EN"
 "http://www.w3.org/TR/2001/REC-SVG-20010904/DTD/svg10.dtd">
<svg version="1.0" xmlns="http://www.w3.org/2000/svg"
 width="229.000000pt" height="250.000000pt" viewBox="0 0 229.000000 250.000000"
 preserveAspectRatio="xMidYMid meet">
<metadata>
Created by potrace 1.14, written by Peter Selinger 2001-2017
</metadata>
<g transform="translate(0.000000,250.000000) scale(0.100000,-0.100000)"
fill="#000000" stroke="none">
<path d="M1859 2479 c-21 -21 -21 -29 -17 -175 3 -109 2 -151 -6 -146 -6 3
-39 26 -73 50 -80 56 -206 114 -313 145 -658 191 -1332 -240 -1437 -918 -26
-172 -2 -439 44 -472 27 -21 73 -12 95 18 19 25 19 29 4 108 -60 317 44 651
276 881 125 124 288 216 463 261 124 33 361 33 477 1 113 -31 219 -78 306
-135 l77 -52 -60 -6 c-33 -4 -101 -7 -151 -8 -76 -1 -96 -4 -118 -22 -32 -25
-35 -70 -5 -100 20 -20 27 -21 198 -15 97 4 213 9 259 12 121 9 116 -5 106
305 -9 247 -9 251 -33 270 -31 25 -66 24 -92 -2z"/>
<path d="M2144 1537 l-28 -25 12 -73 c22 -133 25 -215 12 -316 -48 -382 -303
-700 -659 -822 -205 -70 -454 -70 -657 -1 -112 39 -306 154 -287 170 4 4 73
13 153 19 124 10 148 15 167 33 30 28 29 63 -3 95 -21 21 -32 24 -62 20 -20
-3 -131 -14 -246 -23 -186 -16 -213 -21 -235 -40 l-25 -22 22 -253 c25 -282
29 -292 90 -287 24 2 41 11 53 28 16 23 16 35 4 165 -7 77 -11 142 -10 143 2
2 25 -13 52 -33 73 -56 256 -142 368 -172 91 -25 116 -27 285 -27 163 -1 196
2 274 23 436 114 759 455 842 888 31 162 14 468 -28 509 -27 26 -64 27 -94 1z"/>
</g>
</svg>
