<?xml version="1.0" standalone="no"?>
<!DOCTYPE svg PUBLIC "-//W3C//DTD SVG 20010904//EN"
 "http://www.w3.org/TR/2001/REC-SVG-20010904/DTD/svg10.dtd">
<svg version="1.0" xmlns="http://www.w3.org/2000/svg"
 width="172.000000pt" height="250.000000pt" viewBox="0 0 172.000000 250.000000"
 preserveAspectRatio="xMidYMid meet">
<metadata>
Created by potrace 1.14, written by Peter Selinger 2001-2017
</metadata>
<g transform="translate(0.000000,250.000000) scale(0.100000,-0.100000)"
fill="#000000" stroke="none">
<path d="M728 2490 c-179 -32 -322 -106 -456 -234 -202 -192 -309 -512 -258
-766 48 -234 219 -574 511 -1015 150 -226 322 -465 335 -465 13 0 185 239 335
465 292 441 463 781 511 1015 51 254 -56 574 -258 766 -165 158 -337 232 -558
239 -63 2 -136 0 -162 -5z m332 -35 c382 -100 663 -486 637 -875 -13 -183
-124 -450 -333 -800 -147 -246 -484 -740 -504 -740 -10 0 -207 276 -325 455
-315 478 -498 865 -512 1083 -23 367 225 738 572 857 139 47 328 55 465 20z"/>
<path d="M770 1961 c-92 -30 -163 -90 -207 -174 -25 -46 -28 -63 -28 -147 0
-83 3 -101 27 -145 128 -244 468 -244 596 0 24 44 27 62 27 145 0 84 -3 101
-28 147 -60 115 -154 175 -282 179 -44 2 -91 0 -105 -5z m205 -32 c36 -13 73
-38 105 -69 150 -151 107 -406 -86 -501 -69 -34 -198 -35 -266 -1 -195 96
-239 350 -87 502 87 87 216 113 334 69z"/>
</g>
</svg>
