<?xml version="1.0" standalone="no"?>
<!DOCTYPE svg PUBLIC "-//W3C//DTD SVG 20010904//EN"
 "http://www.w3.org/TR/2001/REC-SVG-20010904/DTD/svg10.dtd">
<svg version="1.0" xmlns="http://www.w3.org/2000/svg"
 width="250.000000pt" height="140.000000pt" viewBox="0 0 250.000000 140.000000"
 preserveAspectRatio="xMidYMid meet">
<metadata>
Created by potrace 1.14, written by Peter Selinger 2001-2017
</metadata>
<g transform="translate(0.000000,140.000000) scale(0.100000,-0.100000)"
fill="#000000" stroke="none">
<path d="M627 847 c-339 -304 -618 -556 -618 -560 0 -5 67 -69 150 -143 l151
-135 34 28 c18 15 228 201 465 413 238 212 436 385 441 385 5 0 203 -173 441
-385 237 -212 447 -398 465 -413 l33 -28 156 138 155 138 -23 21 c-43 41
-1227 1094 -1230 1093 -1 0 -280 -249 -620 -552z"/>
</g>
</svg>
