<?xml version="1.0" standalone="no"?>
<!DOCTYPE svg PUBLIC "-//W3C//DTD SVG 20010904//EN"
 "http://www.w3.org/TR/2001/REC-SVG-20010904/DTD/svg10.dtd">
<svg version="1.0" xmlns="http://www.w3.org/2000/svg"
 width="140.000000pt" height="250.000000pt" viewBox="0 0 140.000000 250.000000"
 preserveAspectRatio="xMidYMid meet">
<metadata>
Created by potrace 1.14, written by Peter Selinger 2001-2017
</metadata>
<g transform="translate(0.000000,250.000000) scale(0.100000,-0.100000)"
fill="#000000" stroke="none">
<path d="M557 1875 l-557 -625 531 -598 c293 -328 544 -609 558 -624 l26 -28
138 155 138 156 -28 33 c-15 18 -201 228 -413 465 -212 238 -385 436 -385 441
0 5 173 203 385 441 212 237 398 447 413 465 l28 34 -122 138 c-67 75 -130
145 -139 155 -15 16 -49 -20 -573 -608z"/>
</g>
</svg>
