<?xml version="1.0" standalone="no"?>
<!DOCTYPE svg PUBLIC "-//W3C//DTD SVG 20010904//EN"
 "http://www.w3.org/TR/2001/REC-SVG-20010904/DTD/svg10.dtd">
<svg version="1.0" xmlns="http://www.w3.org/2000/svg"
 width="626.000000pt" height="626.000000pt" viewBox="0 0 626.000000 626.000000"
 preserveAspectRatio="xMidYMid meet">
<metadata>
Created by potrace 1.15, written by Peter Selinger 2001-2017
</metadata>
<g transform="translate(0.000000,626.000000) scale(0.100000,-0.100000)"
fill="#000000" stroke="none">
<path d="M2680 5380 c-137 -9 -609 -58 -629 -65 -8 -3 -81 -17 -163 -30 -82
-13 -153 -27 -158 -30 -5 -3 -60 -16 -122 -29 -196 -42 -523 -141 -643 -195
-22 -10 -51 -22 -65 -25 -33 -10 -270 -110 -340 -144 -100 -49 -275 -145 -310
-171 -112 -80 -179 -172 -221 -304 -37 -113 -37 -171 0 -287 50 -154 145 -261
296 -338 124 -62 297 -68 470 -17 50 15 110 33 135 40 148 44 344 125 458 191
113 65 225 179 268 274 13 30 30 64 36 75 6 11 14 83 17 160 l6 140 40 48 c21
26 42 47 46 47 3 0 29 -24 56 -53 l51 -54 -2 -244 -1 -244 -31 -65 c-43 -90
-114 -164 -238 -246 -348 -228 -450 -344 -564 -649 -72 -190 -97 -318 -114
-574 -11 -170 -10 -218 5 -400 10 -113 24 -240 32 -281 7 -41 23 -127 35 -190
36 -195 81 -319 154 -430 128 -194 302 -311 571 -383 l120 -32 1265 0 1265 0
106 33 c121 36 237 93 318 154 146 110 281 285 365 475 69 154 90 391 83 913
-5 325 -8 383 -31 533 -25 161 -28 172 -81 278 -30 61 -65 124 -77 140 -112
147 -236 266 -371 354 -135 88 -243 169 -275 206 -18 20 -44 63 -58 94 -26 56
-27 62 -20 187 4 80 2 167 -5 231 -15 127 -8 167 36 212 18 19 36 35 40 35 14
0 51 -24 80 -52 l30 -29 5 -147 c5 -140 7 -150 38 -217 25 -53 53 -89 121
-156 83 -83 107 -101 225 -177 247 -159 614 -254 858 -222 152 20 294 106 377
229 70 103 114 291 81 349 -5 9 -16 43 -24 74 -31 127 -157 287 -294 376 -66
42 -237 128 -362 182 -41 18 -93 40 -115 50 -22 10 -58 23 -80 30 -22 7 -45
16 -51 21 -6 5 -87 34 -180 64 -303 101 -526 152 -829 190 -212 27 -713 82
-875 95 -123 11 -594 10 -760 0z m1101 -588 c43 -45 59 -146 40 -250 -18 -103
-23 -107 -94 -83 -32 11 -70 28 -85 38 -51 34 -117 62 -189 82 -40 11 -77 22
-82 25 -5 3 -60 10 -122 16 -230 20 -442 -18 -614 -110 -50 -27 -107 -51 -126
-55 -33 -6 -37 -4 -47 22 -39 96 -39 241 -2 298 37 56 15 55 678 52 l612 -2
31 -33z m-365 -888 c144 -27 244 -60 386 -128 273 -130 446 -314 541 -576 29
-79 31 -94 32 -220 0 -128 -2 -140 -32 -223 -18 -48 -41 -100 -51 -115 -11
-15 -32 -47 -48 -72 -63 -97 -218 -240 -344 -318 -205 -126 -518 -212 -770
-212 -156 0 -382 43 -545 104 -76 29 -243 115 -288 150 -204 155 -315 294
-380 475 -28 79 -31 97 -31 216 -1 118 2 137 28 210 66 186 199 358 373 482
69 49 284 163 308 163 9 0 29 7 45 15 40 20 244 64 350 75 122 12 275 3 426
-26z"/>
<path d="M3050 3604 c-373 -42 -628 -288 -589 -569 15 -107 103 -240 209 -317
136 -98 446 -170 576 -134 213 60 263 80 364 147 141 93 215 256 190 415 -19
119 -111 259 -219 333 -59 40 -180 91 -250 106 -72 15 -225 25 -281 19z"/>
</g>
</svg>
