<?xml version="1.0" standalone="no"?>
<!DOCTYPE svg PUBLIC "-//W3C//DTD SVG 20010904//EN"
 "http://www.w3.org/TR/2001/REC-SVG-20010904/DTD/svg10.dtd">
<svg version="1.0" xmlns="http://www.w3.org/2000/svg"
 width="250.000000pt" height="250.000000pt" viewBox="0 0 250.000000 250.000000"
 preserveAspectRatio="xMidYMid meet">
<metadata>
Created by potrace 1.14, written by Peter Selinger 2001-2017
</metadata>
<g transform="translate(0.000000,250.000000) scale(0.100000,-0.100000)"
fill="#000000" stroke="none">
<path d="M1086 2489 c-517 -71 -925 -442 -1053 -956 -24 -97 -27 -127 -27
-283 0 -156 3 -187 27 -283 118 -474 460 -816 934 -934 96 -24 127 -27 283
-27 156 0 187 3 283 27 474 118 816 460 934 934 24 96 27 127 27 283 0 156 -3
187 -27 283 -121 486 -488 842 -972 942 -96 20 -314 28 -409 14z m344 -23
c177 -27 341 -90 497 -191 117 -76 289 -251 361 -368 254 -410 254 -904 0
-1314 -72 -117 -244 -292 -361 -368 -421 -273 -933 -273 -1354 0 -117 76 -289
251 -361 368 -254 410 -254 904 0 1314 72 117 244 292 361 368 261 169 559
235 857 191z"/>
<path d="M830 1250 c0 -341 3 -620 6 -620 10 0 1134 615 1134 620 0 5 -1124
620 -1134 620 -3 0 -6 -279 -6 -620z"/>
</g>
</svg>
